<svg width="26" height="20" viewBox="0 0 26 20" fill="none" xmlns="http://www.w3.org/2000/svg">
<path d="M6.35173 13.689C7.03084 13.689 7.58139 13.1384 7.58139 12.4593C7.58139 11.7802 7.03084 11.2296 6.35173 11.2296C5.67261 11.2296 5.12207 11.7802 5.12207 12.4593C5.12207 13.1384 5.67261 13.689 6.35173 13.689Z" fill="white" stroke="white" stroke-width="2" stroke-linecap="round" stroke-linejoin="round"/>
<path d="M0.203369 6.31103V2.13019C0.203369 1.72272 0.533692 1.3924 0.941164 1.3924H24.0587C24.4662 1.3924 24.7965 1.72272 24.7965 2.13019V6.31103M0.203369 6.31103V17.8698C0.203369 18.2773 0.533692 18.6076 0.941164 18.6076H24.0587C24.4662 18.6076 24.7965 18.2773 24.7965 17.8698V6.31103M0.203369 6.31103H24.7965" stroke="white" stroke-width="2" stroke-linecap="round" stroke-linejoin="round"/>
</svg>
