<svg width="23" height="16" viewBox="0 0 23 16" fill="none" xmlns="http://www.w3.org/2000/svg">
<path fill-rule="evenodd" clip-rule="evenodd" d="M6.47047 5.02727L7.18625 3.88861L7.9021 5.02727H6.47047ZM7.74954 2.99243L9.94472 6.48435L9.01849 6.80318L8.37734 5.78327H5.99515L5.37939 6.76268L4.45316 6.44391L6.62279 2.99237L6.80269 2.70633C6.95081 2.4706 7.40204 2.46725 7.55654 2.70076L7.74954 2.99243ZM16.6229 8.94608H17.6446V10.3702H18.8383V11.1262H17.6446V13.166H16.6229V8.94608ZM13.5951 11.7432C14.2006 11.3276 14.5939 10.7702 14.7087 10.1649L14.7221 10.0942H12.9165V9.3382H15.8506V10.0942L15.624 10.7727C15.4519 11.2884 15.0749 11.754 14.5416 12.1095L13.5596 12.7642L12.8848 12.0918L13.4977 11.7987C13.5323 11.7823 13.5649 11.7638 13.5951 11.7432H13.5951ZM19.3332 6.57906C21.0203 6.57906 22.388 7.59113 22.388 8.83958V14.166C22.388 14.7417 21.7572 15.2084 20.9792 15.2084H10.187C9.27172 15.2084 8.52983 14.6595 8.52983 13.9822V10.4634C8.5298 9.82947 8.81297 9.21331 9.33527 8.71083L12.2573 5.89928C12.5745 5.59402 12.7465 5.21972 12.7465 4.83462V1.38889H1.81919V6.59611C1.81919 7.32184 2.61428 7.91026 3.59508 7.91026H6.91281V8.95727H3.26343C1.68441 8.95727 0.404297 8.00999 0.404297 6.84153V1.38171C0.404297 0.80753 1.03348 0.341881 1.80957 0.341881H12.5244C13.4285 0.341881 14.1614 0.884231 14.1614 1.5533V5.2228C14.1614 5.60704 13.9902 5.98056 13.6742 6.28548L10.7468 9.11043C10.2266 9.61239 9.94471 10.2273 9.94472 10.8598V14.1614H20.9731V9.01003C20.9731 8.24566 20.1358 7.62607 19.1029 7.62607H16.1161V6.57906H19.3332Z" fill="white"/>
</svg>
