<svg width="46" height="26" viewBox="0 0 46 26" fill="none" xmlns="http://www.w3.org/2000/svg">
<path fill-rule="evenodd" clip-rule="evenodd" d="M21.8779 0.00701141H30.8535V25.993C25.8964 25.993 21.8779 21.664 21.8779 16.3238V0.00701141ZM45.9999 16.626C45.9999 21.7992 42.1069 25.993 37.3048 25.993V0.00701141H45.9999V16.626Z" fill="black"/>
<path d="M0 4.40746V3.62595C0 1.6234 1.50694 0 3.36585 0H8.54332L20.7496 13.1495V16.3238C20.7496 19.3507 21.8972 22.0889 23.7493 24.0608C23.1859 25.2138 22.0627 26 20.7691 26H15.6287L3.12181 12.5266C1.12295 10.3733 0 7.45272 0 4.40746Z" fill="black"/>
<path d="M0 26V20.5355C0 19.7279 0.906375 19.3235 1.43647 19.8945L7.10397 26H0Z" fill="black"/>
<path d="M17.0681 0H20.7496V3.96601L17.0681 0Z" fill="black"/>
<path fill-rule="evenodd" clip-rule="evenodd" d="M21.8781 14.3582V16.3238C21.8781 18.7784 22.727 21.0193 24.1259 22.7244C24.0833 23.2032 23.9543 23.6548 23.7558 24.0608C21.9037 22.0889 20.7561 19.3507 20.7561 16.3238V13.1496L21.8781 14.3582Z" fill="white"/>
<path d="M21.8781 5.18167V0.0140099L20.7561 0.00701141V3.97302L21.8781 5.18167Z" fill="white"/>
</svg>
